#N canvas 295 254 1009 703 12;
#X obj 171 109 bng 25 250 50 0 empty empty play 30 10 0 8 -258699 -241291
-1;
#X obj 201 132 bng 25 250 50 0 empty empty load 30 10 0 8 -258699 -241291
-1;
#X symbolatom 268 651 50 0 0 0 - - -;
#X obj 84 220 outlet~;
#X obj 48 27 r sampleinit;
#X floatatom 10 148 5 0 0 0 - - -;
#X text 5 130 length;
#X floatatom 11 171 5 0 0 0 - - -;
#X text 4 189 volume;
#X floatatom 58 148 5 0 0 0 - - -;
#X floatatom 107 148 5 0 0 0 - - -;
#X text 107 128 pitch;
#X text 59 129 start;
#X obj 191 220 s lastload;
#X obj 268 621 r lastload;
#X msg 48 100 1;
#X msg 10 100 440;
#X obj 311 374 bng 25 250 50 0 empty empty play 30 10 0 8 -258699 -241291
-1;
#X obj 341 397 bng 25 250 50 0 empty empty load 30 10 0 8 -258699 -241291
-1;
#X obj 224 485 outlet~;
#X obj 188 292 r sampleinit;
#X floatatom 150 413 5 0 0 0 - - -;
#X text 145 395 length;
#X floatatom 151 436 5 0 0 0 - - -;
#X text 144 454 volume;
#X floatatom 198 413 5 0 0 0 - - -;
#X floatatom 247 413 5 0 0 0 - - -;
#X text 247 393 pitch;
#X text 199 394 start;
#X obj 331 485 s lastload;
#X msg 188 365 1;
#X msg 150 365 440;
#X obj 534 150 bng 25 250 50 0 empty empty play 30 10 0 8 -258699 -241291
-1;
#X obj 564 173 bng 25 250 50 0 empty empty load 30 10 0 8 -258699 -241291
-1;
#X obj 447 261 outlet~;
#X obj 411 68 r sampleinit;
#X floatatom 373 189 5 0 0 0 - - -;
#X text 368 171 length;
#X floatatom 374 212 5 0 0 0 - - -;
#X text 367 230 volume;
#X floatatom 421 189 5 0 0 0 - - -;
#X floatatom 470 189 5 0 0 0 - - -;
#X text 470 169 pitch;
#X text 422 170 start;
#X obj 554 261 s lastload;
#X msg 411 141 1;
#X msg 373 141 440;
#X msg 85 100 100;
#X msg 225 365 100;
#X obj 171 86 r channel6;
#X obj 311 351 r channel7;
#X obj 534 127 r channel8;
#X msg 448 141 113;
#X obj 654 392 bng 25 250 50 0 empty empty play 30 10 0 8 -258699 -241291
-1;
#X obj 684 415 bng 25 250 50 0 empty empty load 30 10 0 8 -258699 -241291
-1;
#X obj 567 503 outlet~;
#X obj 531 310 r sampleinit;
#X floatatom 493 431 5 0 0 0 - - -;
#X text 488 413 length;
#X floatatom 494 454 5 0 0 0 - - -;
#X text 487 472 volume;
#X floatatom 541 431 5 0 0 0 - - -;
#X floatatom 590 431 5 0 0 0 - - -;
#X text 590 411 pitch;
#X text 542 412 start;
#X obj 674 503 s lastload;
#X msg 531 383 1;
#X msg 493 383 440;
#X msg 568 383 100;
#X obj 822 97 bng 25 250 50 0 empty empty play 30 10 0 8 -258699 -241291
-1;
#X obj 852 120 bng 25 250 50 0 empty empty load 30 10 0 8 -258699 -241291
-1;
#X obj 735 208 outlet~;
#X obj 699 15 r sampleinit;
#X floatatom 661 136 5 0 0 0 - - -;
#X text 656 118 length;
#X floatatom 662 159 5 0 0 0 - - -;
#X text 655 177 volume;
#X floatatom 709 136 5 0 0 0 - - -;
#X floatatom 758 136 5 0 0 0 - - -;
#X text 758 116 pitch;
#X text 710 117 start;
#X obj 842 208 s lastload;
#X msg 699 88 1;
#X msg 661 88 440;
#X msg 736 88 100;
#X obj 654 369 r channel9;
#X obj 822 74 r channel10;
#X msg 198 166 ../samples/COWBELL.WAV;
#X msg 849 154 ../samples/TOM05L.WAV;
#X msg 561 207 ../samples/RIDE1.WAV;
#X msg 338 431 ../samples/CLAPS.WAV;
#X msg 681 449 ../samples/TOM09H.WAV;
#X obj 84 192 sampleplayer 6;
#X obj 224 457 sampleplayer 7;
#X obj 447 233 sampleplayer 8;
#X obj 735 180 sampleplayer 10;
#X obj 567 475 sampleplayer 9;
#X obj 264 99 openpanel;
#X msg 264 122 \$1;
#X obj 264 76 r load6;
#X obj 544 78 openpanel;
#X msg 544 101 \$1;
#X obj 544 55 r load8;
#X obj 917 81 openpanel;
#X msg 917 104 \$1;
#X obj 917 58 r load10;
#X obj 413 348 openpanel;
#X msg 413 371 \$1;
#X obj 413 325 r load7;
#X obj 785 369 openpanel;
#X msg 785 392 \$1;
#X obj 785 346 r load9;
#X obj 8 222 r cwvol;
#X obj 87 438 r cpvol;
#X obj 312 213 r rdvol;
#X obj 472 505 r tm1vol;
#X obj 646 52 r tm2vol;
#X connect 0 0 92 4;
#X connect 1 0 92 5;
#X connect 4 0 87 0;
#X connect 4 0 16 0;
#X connect 4 0 15 0;
#X connect 4 0 47 0;
#X connect 5 0 92 1;
#X connect 7 0 92 0;
#X connect 9 0 92 2;
#X connect 10 0 92 3;
#X connect 14 0 2 0;
#X connect 15 0 9 0;
#X connect 16 0 5 0;
#X connect 17 0 93 4;
#X connect 18 0 93 5;
#X connect 20 0 90 0;
#X connect 20 0 31 0;
#X connect 20 0 30 0;
#X connect 20 0 48 0;
#X connect 21 0 93 1;
#X connect 23 0 93 0;
#X connect 25 0 93 2;
#X connect 26 0 93 3;
#X connect 30 0 25 0;
#X connect 31 0 21 0;
#X connect 32 0 94 4;
#X connect 33 0 94 5;
#X connect 35 0 89 0;
#X connect 35 0 46 0;
#X connect 35 0 45 0;
#X connect 35 0 52 0;
#X connect 36 0 94 1;
#X connect 38 0 94 0;
#X connect 40 0 94 2;
#X connect 41 0 94 3;
#X connect 45 0 40 0;
#X connect 46 0 36 0;
#X connect 47 0 10 0;
#X connect 48 0 26 0;
#X connect 49 0 0 0;
#X connect 50 0 17 0;
#X connect 51 0 32 0;
#X connect 52 0 41 0;
#X connect 53 0 96 4;
#X connect 54 0 96 5;
#X connect 56 0 91 0;
#X connect 56 0 67 0;
#X connect 56 0 66 0;
#X connect 56 0 68 0;
#X connect 57 0 96 1;
#X connect 59 0 96 0;
#X connect 61 0 96 2;
#X connect 62 0 96 3;
#X connect 66 0 61 0;
#X connect 67 0 57 0;
#X connect 68 0 62 0;
#X connect 69 0 95 4;
#X connect 70 0 95 5;
#X connect 72 0 88 0;
#X connect 72 0 83 0;
#X connect 72 0 82 0;
#X connect 72 0 84 0;
#X connect 73 0 95 1;
#X connect 75 0 95 0;
#X connect 77 0 95 2;
#X connect 78 0 95 3;
#X connect 82 0 77 0;
#X connect 83 0 73 0;
#X connect 84 0 78 0;
#X connect 85 0 53 0;
#X connect 86 0 69 0;
#X connect 87 0 92 6;
#X connect 88 0 95 6;
#X connect 89 0 94 6;
#X connect 90 0 93 6;
#X connect 91 0 96 6;
#X connect 92 0 3 0;
#X connect 92 1 13 0;
#X connect 93 0 19 0;
#X connect 93 1 29 0;
#X connect 94 0 34 0;
#X connect 94 1 44 0;
#X connect 95 0 71 0;
#X connect 95 1 81 0;
#X connect 96 0 55 0;
#X connect 96 1 65 0;
#X connect 97 0 98 0;
#X connect 98 0 92 6;
#X connect 99 0 97 0;
#X connect 100 0 101 0;
#X connect 101 0 94 6;
#X connect 102 0 100 0;
#X connect 103 0 104 0;
#X connect 104 0 95 6;
#X connect 105 0 103 0;
#X connect 106 0 107 0;
#X connect 107 0 93 6;
#X connect 108 0 106 0;
#X connect 109 0 110 0;
#X connect 110 0 96 6;
#X connect 111 0 109 0;
#X connect 112 0 7 0;
#X connect 113 0 23 0;
#X connect 114 0 38 0;
#X connect 115 0 59 0;
#X connect 116 0 75 0;
