#N canvas 777 37 462 312 10;
#X floatatom 70 74 0 0 0 0 - - -;
#X text 100 73 <-- delay time;
#X text 299 172 write to delay line;
#X text 258 98 read from delay line;
#X text 84 145 add the original and the delayed signal;
#X obj 49 146 +~;
#X obj 70 122 *~ 0.7;
#X text 128 122 feedback gain;
#X obj 70 98 delread~ G02-del 160;
#X obj 89 171 delwrite~ G02-del 2000;
#X obj 49 225 outlet~;
#X obj 36 13 inlet~;
#X obj 109 47 inlet;
#X obj 169 47 inlet;
#X obj 24 92 *~ 0;
#X obj 229 47 inlet;
#X obj 45 196 *~ 0.5;
#X connect 0 0 8 0;
#X connect 5 0 9 0;
#X connect 5 0 16 0;
#X connect 6 0 5 1;
#X connect 8 0 6 0;
#X connect 11 0 14 0;
#X connect 12 0 0 0;
#X connect 13 0 14 1;
#X connect 14 0 5 0;
#X connect 15 0 6 1;
#X connect 16 0 10 0;
