#N canvas 118 27 1009 703 12;
#X obj 186 109 bng 25 250 50 0 empty empty play 30 10 0 8 -258699 -241291
-1;
#X obj 216 132 bng 25 250 50 0 empty empty load 30 10 0 8 -258699 -241291
-1;
#X symbolatom 268 651 50 0 0 0 - - -;
#X obj 186 86 r channel1;
#X obj 99 192 sampleplayer 1;
#X obj 99 220 outlet~;
#X obj 63 27 r sampleinit;
#X floatatom 25 148 5 0 0 0 - - -;
#X text 20 130 length;
#X floatatom 26 171 5 0 0 0 - - -;
#X text 19 189 volume;
#X floatatom 73 148 5 0 0 0 - - -;
#X floatatom 122 148 5 0 0 0 - - -;
#X text 122 128 pitch;
#X text 74 129 start;
#X obj 206 220 s lastload;
#X obj 268 621 r lastload;
#X msg 63 100 1;
#X msg 25 100 440;
#X obj 311 374 bng 25 250 50 0 empty empty play 30 10 0 8 -258699 -241291
-1;
#X obj 341 397 bng 25 250 50 0 empty empty load 30 10 0 8 -258699 -241291
-1;
#X obj 224 485 outlet~;
#X obj 188 292 r sampleinit;
#X floatatom 150 413 5 0 0 0 - - -;
#X text 145 395 length;
#X floatatom 151 436 5 0 0 0 - - -;
#X text 144 454 volume;
#X floatatom 198 413 5 0 0 0 - - -;
#X floatatom 247 413 5 0 0 0 - - -;
#X text 247 393 pitch;
#X text 199 394 start;
#X obj 331 485 s lastload;
#X msg 188 365 1;
#X msg 150 365 440;
#X obj 311 351 r channel2;
#X obj 521 149 bng 25 250 50 0 empty empty play 30 10 0 8 -258699 -241291
-1;
#X obj 551 172 bng 25 250 50 0 empty empty load 30 10 0 8 -258699 -241291
-1;
#X obj 434 260 outlet~;
#X obj 398 67 r sampleinit;
#X floatatom 360 188 5 0 0 0 - - -;
#X text 355 170 length;
#X floatatom 361 211 5 0 0 0 - - -;
#X text 354 229 volume;
#X floatatom 408 188 5 0 0 0 - - -;
#X floatatom 457 188 5 0 0 0 - - -;
#X text 457 168 pitch;
#X text 409 169 start;
#X obj 541 260 s lastload;
#X msg 398 140 1;
#X msg 360 140 440;
#X obj 521 126 r channel3;
#X obj 675 386 bng 25 250 50 0 empty empty play 30 10 0 8 -258699 -241291
-1;
#X obj 705 409 bng 25 250 50 0 empty empty load 30 10 0 8 -258699 -241291
-1;
#X obj 588 497 outlet~;
#X obj 552 304 r sampleinit;
#X floatatom 514 425 5 0 0 0 - - -;
#X text 509 407 length;
#X floatatom 515 448 5 0 0 0 - - -;
#X text 508 466 volume;
#X floatatom 562 425 5 0 0 0 - - -;
#X floatatom 611 425 5 0 0 0 - - -;
#X text 611 405 pitch;
#X text 563 406 start;
#X obj 695 497 s lastload;
#X msg 552 377 1;
#X msg 514 377 440;
#X obj 675 363 r channel4;
#X obj 788 91 bng 25 250 50 0 empty empty play 30 10 0 8 -258699 -241291
-1;
#X obj 818 114 bng 25 250 50 0 empty empty load 30 10 0 8 -258699 -241291
-1;
#X obj 701 202 outlet~;
#X obj 665 9 r sampleinit;
#X floatatom 627 130 5 0 0 0 - - -;
#X text 622 112 length;
#X floatatom 628 153 5 0 0 0 - - -;
#X text 621 171 volume;
#X floatatom 675 130 5 0 0 0 - - -;
#X floatatom 724 130 5 0 0 0 - - -;
#X text 724 110 pitch;
#X text 676 111 start;
#X obj 808 202 s lastload;
#X msg 665 82 1;
#X msg 627 82 440;
#X obj 788 68 r channel5;
#X msg 100 100 100;
#X msg 435 140 100;
#X msg 589 377 100;
#X msg 225 365 100;
#X msg 702 82 100;
#X text 438 600 pitch is based at 100 as natural playback speed;
#X text 438 617 load samples with bang and copy path into loader message
;
#X msg 814 148 ../samples/SHAKE1.WAV;
#X obj 224 457 sampleplayer 2;
#X obj 434 232 sampleplayer 3;
#X obj 588 469 sampleplayer 4;
#X obj 701 174 sampleplayer 5;
#X obj 275 86 r load1;
#X obj 275 109 openpanel;
#X msg 275 132 \$1;
#X obj 525 69 openpanel;
#X msg 525 92 \$1;
#X obj 895 69 openpanel;
#X msg 895 92 \$1;
#X obj 895 46 r load5;
#X obj 525 46 r load3;
#X obj 415 339 openpanel;
#X msg 415 362 \$1;
#X obj 415 316 r load2;
#X obj 765 339 openpanel;
#X msg 765 362 \$1;
#X obj 765 316 r load4;
#X msg 86 59 ../allasamples/1_bumbocamposentropicos.wav;
#X msg 165 325 ../allasamples/2_caixapop.wav;
#X msg 321 15 ../allasamples/3_chimbaufechado_camposentr.wav;
#X msg 702 443 ../allasamples/4_chimbauaberto_camposentr.wav;
#X connect 0 0 4 4;
#X connect 1 0 4 5;
#X connect 3 0 0 0;
#X connect 4 0 5 0;
#X connect 4 1 15 0;
#X connect 6 0 110 0;
#X connect 6 0 18 0;
#X connect 6 0 17 0;
#X connect 6 0 83 0;
#X connect 7 0 4 1;
#X connect 9 0 4 0;
#X connect 11 0 4 2;
#X connect 12 0 4 3;
#X connect 16 0 2 0;
#X connect 17 0 11 0;
#X connect 18 0 7 0;
#X connect 19 0 91 4;
#X connect 20 0 91 5;
#X connect 22 0 111 0;
#X connect 22 0 33 0;
#X connect 22 0 32 0;
#X connect 22 0 86 0;
#X connect 23 0 91 1;
#X connect 25 0 91 0;
#X connect 27 0 91 2;
#X connect 28 0 91 3;
#X connect 32 0 27 0;
#X connect 33 0 23 0;
#X connect 34 0 19 0;
#X connect 35 0 92 4;
#X connect 36 0 92 5;
#X connect 38 0 112 0;
#X connect 38 0 49 0;
#X connect 38 0 48 0;
#X connect 38 0 84 0;
#X connect 39 0 92 1;
#X connect 41 0 92 0;
#X connect 43 0 92 2;
#X connect 44 0 92 3;
#X connect 48 0 43 0;
#X connect 49 0 39 0;
#X connect 50 0 35 0;
#X connect 51 0 93 4;
#X connect 52 0 93 5;
#X connect 54 0 65 0;
#X connect 54 0 64 0;
#X connect 54 0 85 0;
#X connect 54 0 113 0;
#X connect 55 0 93 1;
#X connect 57 0 93 0;
#X connect 59 0 93 2;
#X connect 60 0 93 3;
#X connect 64 0 59 0;
#X connect 65 0 55 0;
#X connect 66 0 51 0;
#X connect 67 0 94 4;
#X connect 68 0 94 5;
#X connect 70 0 90 0;
#X connect 70 0 81 0;
#X connect 70 0 80 0;
#X connect 70 0 87 0;
#X connect 71 0 94 1;
#X connect 73 0 94 0;
#X connect 75 0 94 2;
#X connect 76 0 94 3;
#X connect 80 0 75 0;
#X connect 81 0 71 0;
#X connect 82 0 67 0;
#X connect 83 0 12 0;
#X connect 84 0 44 0;
#X connect 85 0 60 0;
#X connect 86 0 28 0;
#X connect 87 0 76 0;
#X connect 90 0 94 6;
#X connect 91 0 21 0;
#X connect 91 1 31 0;
#X connect 92 0 37 0;
#X connect 92 1 47 0;
#X connect 93 0 53 0;
#X connect 93 1 63 0;
#X connect 94 0 69 0;
#X connect 94 1 79 0;
#X connect 95 0 96 0;
#X connect 96 0 97 0;
#X connect 97 0 4 6;
#X connect 98 0 99 0;
#X connect 99 0 92 6;
#X connect 100 0 101 0;
#X connect 101 0 94 6;
#X connect 102 0 100 0;
#X connect 103 0 98 0;
#X connect 104 0 105 0;
#X connect 105 0 91 6;
#X connect 106 0 104 0;
#X connect 107 0 108 0;
#X connect 108 0 93 6;
#X connect 109 0 107 0;
#X connect 110 0 4 6;
#X connect 111 0 91 6;
#X connect 112 0 92 6;
#X connect 113 0 93 6;
