#N canvas 769 32 369 600 10;
#N canvas 592 22 759 654 player 0;
#X obj 2 -69 openpanel;
#X obj 4 5 bng 15 250 50 0 empty empty empty 17 7 0 10 -262144 -1 -1
;
#X obj 2 -24 soundfiler;
#N canvas 15 37 450 300 (subpatch) 0;
#X array player1L 10586 float 0;
#X coords 0 1 10585 -1 180 30 1;
#X restore 4 59 graph;
#N canvas 15 37 450 300 (subpatch) 0;
#X array player1R 10586 float 0;
#X coords 0 1 10585 -1 180 30 1;
#X restore 4 106 graph;
#X obj 364 63 *~;
#X obj 464 61 *~;
#X obj 192 55 vu 15 80 empty empty -1 -8 0 8 -66577 -1 1 0;
#X obj 237 55 vsl 15 80 0 1 0 0 empty empty empty 0 -9 0 10 -208697
-143491 -1 7900 0;
#X obj 292 55 vu 15 80 empty empty -1 -8 0 8 -66577 -1 1 0;
#X obj 257 55 vsl 15 80 0 1 0 0 empty empty empty 0 -9 0 10 -208697
-143491 -1 7900 0;
#X text 20 4 carregar sample;
#X obj 123 5 tgl 15 0 empty empty empty 17 7 0 10 -262144 -1 -1 1 1
;
#X obj 357 92 spigot~;
#X obj 437 92 spigot~;
#X obj 404 121 dac~;
#X msg 2 -47 read -resize \$1 player1L player1R;
#X obj 465 39 tabplay~ player1R;
#X obj 358 39 tabplay~ player1L;
#X obj 226 5 bng 15 250 50 0 empty empty empty 17 7 0 10 -262144 -1
-1;
#X text 244 4 play;
#X text 141 3 liga/desliga;
#X obj 290 -52 loadbang;
#X msg 290 -32 1;
#X symbolatom 4 26 0 0 0 0 - - -;
#X obj 32 252 makesymbol;
#X obj 32 210 list split 2;
#X obj 31 230 list split 1;
#X obj 35 277 stripfilename 105;
#X connect 0 0 16 0;
#X connect 1 0 0 0;
#X connect 5 0 13 0;
#X connect 6 0 14 0;
#X connect 8 0 10 0;
#X connect 8 0 5 1;
#X connect 10 0 6 1;
#X connect 12 0 13 1;
#X connect 12 0 14 1;
#X connect 13 1 15 0;
#X connect 13 1 15 1;
#X connect 14 1 15 0;
#X connect 14 1 15 1;
#X connect 16 0 2 0;
#X connect 16 0 26 0;
#X connect 17 0 6 0;
#X connect 18 0 5 0;
#X connect 19 0 18 0;
#X connect 19 0 17 0;
#X connect 22 0 23 0;
#X connect 23 0 12 0;
#X connect 23 0 8 0;
#X connect 25 0 28 0;
#X connect 26 1 27 0;
#X connect 27 0 25 0;
#X connect 28 0 24 0;
#X coords 0 -1 1 1 350 140 2 0 0;
#X restore -73 -309 pd player;
#N canvas 592 22 759 654 player 0;
#X obj 2 -69 openpanel;
#X obj 4 5 bng 15 250 50 0 empty empty empty 17 7 0 10 -262144 -1 -1
;
#X obj 2 -24 soundfiler;
#N canvas 15 37 450 300 (subpatch) 0;
#X array player2L 169346 float 0;
#X coords 0 1 169345 -1 180 30 1;
#X restore 4 59 graph;
#N canvas 15 37 450 300 (subpatch) 0;
#X array player2R 169346 float 0;
#X coords 0 1 169345 -1 180 30 1;
#X restore 4 106 graph;
#X obj 364 63 *~;
#X obj 464 61 *~;
#X obj 192 55 vu 15 80 empty empty -1 -8 0 8 -66577 -1 1 0;
#X obj 237 55 vsl 15 80 0 1 0 0 empty empty empty 0 -9 0 10 -208697
-143491 -1 7900 0;
#X obj 292 55 vu 15 80 empty empty -1 -8 0 8 -66577 -1 1 0;
#X obj 257 55 vsl 15 80 0 1 0 0 empty empty empty 0 -9 0 10 -208697
-143491 -1 7900 0;
#X text 20 4 carregar sample;
#X obj 123 5 tgl 15 0 empty empty empty 17 7 0 10 -262144 -1 -1 1 1
;
#X obj 357 92 spigot~;
#X obj 437 92 spigot~;
#X obj 404 121 dac~;
#X obj 226 5 bng 15 250 50 0 empty empty empty 17 7 0 10 -262144 -1
-1;
#X text 244 4 play;
#X text 141 3 liga/desliga;
#X obj 290 -52 loadbang;
#X msg 290 -32 1;
#X symbolatom 4 26 0 0 0 0 - - -;
#X obj 32 252 makesymbol;
#X obj 32 210 list split 2;
#X obj 31 230 list split 1;
#X obj 35 277 stripfilename 105;
#X msg 2 -47 read -resize \$1 player2L player2R;
#X obj 358 39 tabplay~ player2L;
#X obj 465 39 tabplay~ player2R;
#X connect 0 0 26 0;
#X connect 1 0 0 0;
#X connect 5 0 13 0;
#X connect 6 0 14 0;
#X connect 8 0 10 0;
#X connect 8 0 5 1;
#X connect 10 0 6 1;
#X connect 12 0 13 1;
#X connect 12 0 14 1;
#X connect 13 1 15 0;
#X connect 13 1 15 1;
#X connect 14 1 15 0;
#X connect 14 1 15 1;
#X connect 16 0 27 0;
#X connect 16 0 28 0;
#X connect 19 0 20 0;
#X connect 20 0 12 0;
#X connect 20 0 8 0;
#X connect 22 0 25 0;
#X connect 23 1 24 0;
#X connect 24 0 22 0;
#X connect 25 0 21 0;
#X connect 26 0 2 0;
#X connect 26 0 23 0;
#X connect 27 0 5 0;
#X connect 28 0 6 0;
#X coords 0 -1 1 1 350 140 2 0 0;
#X restore -73 -169 pd player;
#N canvas 592 22 759 654 player 0;
#X obj 2 -69 openpanel;
#X obj 4 5 bng 15 250 50 0 empty empty empty 17 7 0 10 -262144 -1 -1
;
#X obj 2 -24 soundfiler;
#N canvas 15 37 450 300 (subpatch) 0;
#X array player3L 169346 float 0;
#X coords 0 1 169345 -1 180 30 1;
#X restore 4 59 graph;
#N canvas 15 37 450 300 (subpatch) 0;
#X array player3R 169346 float 0;
#X coords 0 1 169345 -1 180 30 1;
#X restore 4 106 graph;
#X obj 364 63 *~;
#X obj 464 61 *~;
#X obj 192 55 vu 15 80 empty empty -1 -8 0 8 -66577 -1 1 0;
#X obj 237 55 vsl 15 80 0 1 0 0 empty empty empty 0 -9 0 10 -208697
-143491 -1 7900 0;
#X obj 292 55 vu 15 80 empty empty -1 -8 0 8 -66577 -1 1 0;
#X obj 257 55 vsl 15 80 0 1 0 0 empty empty empty 0 -9 0 10 -208697
-143491 -1 7900 0;
#X text 20 4 carregar sample;
#X obj 123 5 tgl 15 0 empty empty empty 17 7 0 10 -262144 -1 -1 1 1
;
#X obj 357 92 spigot~;
#X obj 437 92 spigot~;
#X obj 404 121 dac~;
#X obj 226 5 bng 15 250 50 0 empty empty empty 17 7 0 10 -262144 -1
-1;
#X text 244 4 play;
#X text 141 3 liga/desliga;
#X obj 290 -52 loadbang;
#X msg 290 -32 1;
#X symbolatom 4 26 0 0 0 0 - - -;
#X obj 32 252 makesymbol;
#X obj 32 210 list split 2;
#X obj 31 230 list split 1;
#X obj 35 277 stripfilename 105;
#X msg 2 -47 read -resize \$1 player3L player3R;
#X obj 468 39 tabplay~ player3R;
#X obj 358 39 tabplay~ player3L;
#X connect 0 0 26 0;
#X connect 1 0 0 0;
#X connect 5 0 13 0;
#X connect 6 0 14 0;
#X connect 8 0 10 0;
#X connect 8 0 5 1;
#X connect 10 0 6 1;
#X connect 12 0 13 1;
#X connect 12 0 14 1;
#X connect 13 1 15 0;
#X connect 13 1 15 1;
#X connect 14 1 15 0;
#X connect 14 1 15 1;
#X connect 16 0 27 0;
#X connect 16 0 28 0;
#X connect 19 0 20 0;
#X connect 20 0 12 0;
#X connect 20 0 8 0;
#X connect 22 0 25 0;
#X connect 23 1 24 0;
#X connect 24 0 22 0;
#X connect 25 0 21 0;
#X connect 26 0 2 0;
#X connect 26 0 23 0;
#X connect 27 0 6 0;
#X connect 28 0 5 0;
#X coords 0 -1 1 1 350 140 2 0 0;
#X restore -73 -29 pd player;
#N canvas 592 22 759 654 player 0;
#X obj 2 -69 openpanel;
#X obj 4 5 bng 15 250 50 0 empty empty empty 17 7 0 10 -262144 -1 -1
;
#X obj 2 -24 soundfiler;
#N canvas 15 37 450 300 (subpatch) 0;
#X array player4L 2.37082e+06 float 0;
#X coords 0 1 2.37082e+06 -1 180 30 1;
#X restore 4 59 graph;
#N canvas 15 37 450 300 (subpatch) 0;
#X array player4R 2.37082e+06 float 0;
#X coords 0 1 2.37082e+06 -1 180 30 1;
#X restore 4 106 graph;
#X obj 364 63 *~;
#X obj 464 61 *~;
#X obj 192 55 vu 15 80 empty empty -1 -8 0 8 -66577 -1 1 0;
#X obj 237 55 vsl 15 80 0 1 0 0 empty empty empty 0 -9 0 10 -208697
-143491 -1 7900 0;
#X obj 292 55 vu 15 80 empty empty -1 -8 0 8 -66577 -1 1 0;
#X obj 257 55 vsl 15 80 0 1 0 0 empty empty empty 0 -9 0 10 -208697
-143491 -1 7900 0;
#X text 20 4 carregar sample;
#X obj 123 5 tgl 15 0 empty empty empty 17 7 0 10 -262144 -1 -1 1 1
;
#X obj 357 92 spigot~;
#X obj 437 92 spigot~;
#X obj 404 121 dac~;
#X obj 226 5 bng 15 250 50 0 empty empty empty 17 7 0 10 -262144 -1
-1;
#X text 244 4 play;
#X text 141 3 liga/desliga;
#X obj 290 -52 loadbang;
#X msg 290 -32 1;
#X symbolatom 4 26 0 0 0 0 - - -;
#X obj 32 252 makesymbol;
#X obj 32 210 list split 2;
#X obj 31 230 list split 1;
#X obj 35 277 stripfilename 105;
#X msg 2 -47 read -resize \$1 player4L player4R;
#X obj 464 40 tabplay~ player4R;
#X obj 358 39 tabplay~ player4L;
#X connect 0 0 26 0;
#X connect 1 0 0 0;
#X connect 5 0 13 0;
#X connect 6 0 14 0;
#X connect 8 0 10 0;
#X connect 8 0 5 1;
#X connect 10 0 6 1;
#X connect 12 0 13 1;
#X connect 12 0 14 1;
#X connect 13 1 15 0;
#X connect 13 1 15 1;
#X connect 14 1 15 0;
#X connect 14 1 15 1;
#X connect 16 0 27 0;
#X connect 16 0 28 0;
#X connect 19 0 20 0;
#X connect 20 0 12 0;
#X connect 20 0 8 0;
#X connect 22 0 25 0;
#X connect 23 1 24 0;
#X connect 24 0 22 0;
#X connect 25 0 21 0;
#X connect 26 0 2 0;
#X connect 26 0 23 0;
#X connect 27 0 6 0;
#X connect 28 0 5 0;
#X coords 0 -1 1 1 350 140 2 0 0;
#X restore -73 111 pd player;
#X text -70 -331 tocafita de 4 cabeçotes;
